# xmcd
#
# Track frame offsets:
#	150
#	17631
#	27606
#	60958
#	73668
#	161605
#	194216
#	230578
#	265028
#	281081
#	291963
#	311711
#
# Disc length: 4480 seconds
#
# Revision: 1
# Processed by: cddbd v1.5PL3 Copyright (c) Steve Scherf et al.
# Submitted via: audiograbber 1.82.01
#
DISCID=b6117e0c
DTITLE=Eric Clapton - Archives Pathfinder - Outtakes - Mid Valley Records - Dis
DTITLE=c 4
DYEAR=1900
DGENRE=
TTITLE0=Eric Clapton - Something You Got (Previously Unreleased Song)
TTITLE1=Eric Clapton - It's Too Late (To Be Sorry) (Fast Version)
TTITLE2=Eric Clapton - It's Too Late (To Be Sorry) (Medium Tempo Version)
TTITLE3=Eric Clapton - Instrumental #3
TTITLE4=Eric Clapton - Instrumental #4 (Key of 'F')
TTITLE5=Eric Clapton - Jam in F (Key of 'C#')
TTITLE6=Eric Clapton - Jam in E #1 (Instrumental Jam)
TTITLE7=Eric Clapton - Jam in E #2 (Instrumental Jam)
TTITLE8=Eric Clapton - Dobro #1 (Give Me Strength Dobro Instrumental Version EC
TTITLE8=Only)
TTITLE9=Eric Clapton - Dobro #2
TTITLE10=Eric Clapton - Eric After Hours Blues (Instrumental Blues Jam)
TTITLE11=Eric Clapton - Walkin Down the Road (Originally Unreleased Song)
EXTD=
EXTT0=
EXTT1=
EXTT2=
EXTT3=
EXTT4=
EXTT5=
EXTT6=
EXTT7=
EXTT8=
EXTT9=
EXTT10=
EXTT11=
PLAYORDER=
